<?xml version="1.0" encoding="UTF-8" standalone="no"?>
<!DOCTYPE svg PUBLIC "-//W3C//DTD SVG 1.1//EN" "http://www.w3.org/Graphics/SVG/1.1/DTD/svg11.dtd">
<svg width="100%" height="100%" viewBox="0 0 128 128" version="1.1" xmlns="http://www.w3.org/2000/svg" xmlns:xlink="http://www.w3.org/1999/xlink" xml:space="preserve" xmlns:serif="http://www.serif.com/" style="fill-rule:evenodd;clip-rule:evenodd;stroke-linecap:round;stroke-linejoin:round;stroke-miterlimit:1.5;">
    <g transform="matrix(1,0,0,1,-128,-128)">
        <g id="button_rotate_cw" transform="matrix(1.3913,0,0,1.3913,128,128)">
            <rect x="0" y="0" width="92" height="92" style="fill:none;"/>
            <clipPath id="_clip1">
                <rect x="0" y="0" width="92" height="92"/>
            </clipPath>
            <g clip-path="url(#_clip1)">
                <g transform="matrix(1.01278,0,0,1.01278,-0.588068,-0.588068)">
                    <circle cx="46" cy="46" r="44" style="fill:none;stroke:white;stroke-width:2.84px;"/>
                </g>
                <g transform="matrix(0.552428,0,0,0.552428,20.5883,20.5883)">
                    <path d="M68,84.106C61.527,87.854 54.012,90 46,90C21.716,90 2,70.284 2,46C2,21.716 21.716,2 46,2C70.284,2 90,21.716 90,46" style="fill:none;stroke:white;stroke-width:5.2px;"/>
                </g>
                <g transform="matrix(-0.378405,-1.4379,1.4379,-0.378405,14.8335,100.962)">
                    <path d="M35.253,36.488L26.253,45.488L35.253,54.488" style="fill:none;stroke:white;stroke-width:1.93px;"/>
                </g>
            </g>
        </g>
    </g>
</svg>
