<?xml version="1.0" encoding="UTF-8" standalone="no"?>
<!DOCTYPE svg PUBLIC "-//W3C//DTD SVG 1.1//EN" "http://www.w3.org/Graphics/SVG/1.1/DTD/svg11.dtd">
<svg width="100%" height="100%" viewBox="0 0 128 128" version="1.1" xmlns="http://www.w3.org/2000/svg" xmlns:xlink="http://www.w3.org/1999/xlink" xml:space="preserve" xmlns:serif="http://www.serif.com/" style="fill-rule:evenodd;clip-rule:evenodd;stroke-linecap:round;stroke-linejoin:round;stroke-miterlimit:1.5;">
    <g transform="matrix(1,0,0,1,-128,-256)">
        <g id="button_hard_drop" transform="matrix(1.3913,0,0,1.3913,128,256)">
            <rect x="0" y="0" width="92" height="92" style="fill:none;"/>
            <clipPath id="_clip1">
                <rect x="0" y="0" width="92" height="92"/>
            </clipPath>
            <g clip-path="url(#_clip1)">
                <g transform="matrix(6.20151e-17,-1.01278,1.01278,6.20151e-17,-0.588068,92.5881)">
                    <circle cx="46" cy="46" r="44" style="fill:none;stroke:white;stroke-width:2.84px;"/>
                </g>
                <g transform="matrix(7.78008e-17,1.45806,1.48685,-1.04477e-16,-22.3952,-12.2701)">
                    <path d="M59.435,46L16,46" style="fill:none;stroke:white;stroke-width:1.95px;"/>
                </g>
                <g transform="matrix(0.71875,0,0,0.71875,-92,-184)">
                    <path d="M173.382,371L210.618,371" style="fill:none;stroke:white;stroke-width:4px;"/>
                </g>
                <g transform="matrix(9.10435e-17,-1.48685,1.48685,9.10435e-17,-21.6518,113.421)">
                    <path d="M35.25,36.5L26.25,45.5L35.25,54.5" style="fill:none;stroke:white;stroke-width:1.93px;"/>
                </g>
            </g>
        </g>
    </g>
</svg>
