<?xml version="1.0" encoding="UTF-8" standalone="no"?><!DOCTYPE svg PUBLIC "-//W3C//DTD SVG 1.1//EN" "http://www.w3.org/Graphics/SVG/1.1/DTD/svg11.dtd"><svg width="1024px" height="1024px" version="1.1" xmlns="http://www.w3.org/2000/svg" xmlns:xlink="http://www.w3.org/1999/xlink" xml:space="preserve" xmlns:serif="http://www.serif.com/" style="fill-rule:evenodd;clip-rule:evenodd;stroke-linejoin:round;stroke-miterlimit:1.5;"><g id="shadows" opacity="0.5"><g transform="matrix(1,0,0,1,-256,128)"><path d="M377,71L377,64L327,64L327,71L320,71L320,96L384,96L384,71L377,71Z" style="fill:url(#_Linear1);"/></g><g><g transform="matrix(1,0,0,1,-128,128)"><path d="M377,71L377,64L327,64L327,71L320,71L320,96L384,96L384,71L377,71Z" style="fill:url(#_Linear2);"/></g><g transform="matrix(6.12323e-17,1,-1,6.12323e-17,320,-128)"><path d="M377,71L377,64L327,64L327,71L320,71L320,96L384,96L384,71L377,71Z" style="fill:url(#_Linear3);"/></g></g><g><g transform="matrix(1,0,0,1,-1.22213e-12,128)"><path d="M377,71L377,64L327,64L327,71L320,71L320,96L384,96L384,71L377,71Z" style="fill:url(#_Linear4);"/></g><g transform="matrix(-1,-1.22465e-16,1.22465e-16,-1,704,320)"><path d="M377,71L377,64L327,64L327,71L320,71L320,96L384,96L384,71L377,71Z" style="fill:url(#_Linear5);"/></g></g><g><g transform="matrix(1,0,0,1,128,128)"><path d="M377,71L377,64L327,64L327,71L320,71L320,96L384,96L384,71L377,71Z" style="fill:url(#_Linear6);"/></g><g transform="matrix(-1,-1.22465e-16,1.22465e-16,-1,832,320)"><path d="M377,71L377,64L327,64L327,71L320,71L320,96L384,96L384,71L377,71Z" style="fill:url(#_Linear7);"/></g><g transform="matrix(6.12323e-17,1,-1,6.12323e-17,576,-128)"><path d="M377,71L377,64L327,64L327,71L320,71L320,96L384,96L384,71L377,71Z" style="fill:url(#_Linear8);"/></g></g><g><g transform="matrix(1,0,0,1,256,128)"><path d="M377,71L377,64L327,64L327,71L320,71L320,96L384,96L384,71L377,71Z" style="fill:url(#_Linear9);"/></g><g transform="matrix(6.12323e-17,-1,1,6.12323e-17,512,576)"><path d="M377,71L377,64L327,64L327,71L320,71L320,96L384,96L384,71L377,71Z" style="fill:url(#_Linear10);"/></g></g><g><g transform="matrix(1,0,0,1,512,128)"><path d="M377,71L377,64L327,64L327,71L320,71L320,96L384,96L384,71L377,71Z" style="fill:url(#_Linear11);"/></g><g transform="matrix(-1,-1.22465e-16,1.22465e-16,-1,1216,320)"><path d="M377,71L377,64L327,64L327,71L320,71L320,96L384,96L384,71L377,71Z" style="fill:url(#_Linear12);"/></g><g transform="matrix(6.12323e-17,-1,1,6.12323e-17,768,576)"><path d="M377,71L377,64L327,64L327,71L320,71L320,96L384,96L384,71L377,71Z" style="fill:url(#_Linear13);"/></g></g><g><g transform="matrix(1,0,0,1,640,128)"><path d="M377,71L377,64L327,64L327,71L320,71L320,96L384,96L384,71L377,71Z" style="fill:url(#_Linear14);"/></g><g transform="matrix(-1,-1.22465e-16,1.22465e-16,-1,1344,320)"><path d="M377,71L377,64L327,64L327,71L320,71L320,96L384,96L384,71L377,71Z" style="fill:url(#_Linear15);"/></g><g transform="matrix(6.12323e-17,1,-1,6.12323e-17,1088,-128)"><path d="M377,71L377,64L327,64L327,71L320,71L320,96L384,96L384,71L377,71Z" style="fill:url(#_Linear16);"/></g><g transform="matrix(6.12323e-17,-1,1,6.12323e-17,896,576)"><path d="M377,71L377,64L327,64L327,71L320,71L320,96L384,96L384,71L377,71Z" style="fill:url(#_Linear17);"/></g></g><g><g transform="matrix(1,0,0,1,384,128)"><path d="M377,71L377,64L327,64L327,71L320,71L320,96L384,96L384,71L377,71Z" style="fill:url(#_Linear18);"/></g><g transform="matrix(6.12323e-17,1,-1,6.12323e-17,832,-128)"><path d="M377,71L377,64L327,64L327,71L320,71L320,96L384,96L384,71L377,71Z" style="fill:url(#_Linear19);"/></g><g transform="matrix(6.12323e-17,-1,1,6.12323e-17,640,576)"><path d="M377,71L377,64L327,64L327,71L320,71L320,96L384,96L384,71L377,71Z" style="fill:url(#_Linear20);"/></g></g><g transform="matrix(-1,-1.22465e-16,1.22465e-16,-1,640,320)"><path d="M377,71L377,64L327,64L327,71L320,71L320,96L384,96L384,71L377,71Z" style="fill:url(#_Linear21);"/></g><g><g transform="matrix(-1,-1.22465e-16,1.22465e-16,-1,768,320)"><path d="M377,71L377,64L327,64L327,71L320,71L320,96L384,96L384,71L377,71Z" style="fill:url(#_Linear22);"/></g><g transform="matrix(6.12323e-17,1,-1,6.12323e-17,512,-128)"><path d="M377,71L377,64L327,64L327,71L320,71L320,96L384,96L384,71L377,71Z" style="fill:url(#_Linear23);"/></g></g><g><g transform="matrix(-1,-1.22465e-16,1.22465e-16,-1,1152,320)"><path d="M377,71L377,64L327,64L327,71L320,71L320,96L384,96L384,71L377,71Z" style="fill:url(#_Linear24);"/></g><g transform="matrix(6.12323e-17,-1,1,6.12323e-17,704,576)"><path d="M377,71L377,64L327,64L327,71L320,71L320,96L384,96L384,71L377,71Z" style="fill:url(#_Linear25);"/></g></g><g><g transform="matrix(-1,-1.22465e-16,1.22465e-16,-1,1280,320)"><path d="M377,71L377,64L327,64L327,71L320,71L320,96L384,96L384,71L377,71Z" style="fill:url(#_Linear26);"/></g><g transform="matrix(6.12323e-17,1,-1,6.12323e-17,1024,-128)"><path d="M377,71L377,64L327,64L327,71L320,71L320,96L384,96L384,71L377,71Z" style="fill:url(#_Linear27);"/></g><g transform="matrix(6.12323e-17,-1,1,6.12323e-17,832,576)"><path d="M377,71L377,64L327,64L327,71L320,71L320,96L384,96L384,71L377,71Z" style="fill:url(#_Linear28);"/></g></g><g transform="matrix(6.12323e-17,1,-1,6.12323e-17,256,-128)"><path d="M377,71L377,64L327,64L327,71L320,71L320,96L384,96L384,71L377,71Z" style="fill:url(#_Linear29);"/></g><g><g transform="matrix(6.12323e-17,1,-1,6.12323e-17,768,-128)"><path d="M377,71L377,64L327,64L327,71L320,71L320,96L384,96L384,71L377,71Z" style="fill:url(#_Linear30);"/></g><g transform="matrix(6.12323e-17,-1,1,6.12323e-17,576,576)"><path d="M377,71L377,64L327,64L327,71L320,71L320,96L384,96L384,71L377,71Z" style="fill:url(#_Linear31);"/></g></g><g transform="matrix(6.12323e-17,-1,1,6.12323e-17,448,576)"><path d="M377,71L377,64L327,64L327,71L320,71L320,96L384,96L384,71L377,71Z" style="fill:url(#_Linear32);"/></g></g><g transform="matrix(1,0,0,1,0,-64)"><g transform="matrix(1.08277,0,0,1.62415,-7.94579,-123.756)"><path d="M81.223,273.223L81.223,302.777L110.777,302.777L110.777,273.223" style="fill:none;stroke:white;stroke-width:7.24px;"/></g><g transform="matrix(1.08277,0,0,1.62415,-71.9458,-123.756)"><rect x="81.223" y="283.074" width="29.554" height="19.703" style="fill:none;stroke:white;stroke-width:7.24px;"/></g><g transform="matrix(-1.08277,-1.32601e-16,1.98901e-16,-1.62415,391.946,827.756)"><path d="M81.223,273.223L81.223,302.777L110.777,302.777L110.777,273.223" style="fill:none;stroke:white;stroke-width:7.24px;"/></g><g transform="matrix(6.63005e-17,-1.08277,1.62415,9.94507e-17,68.244,455.946)"><path d="M81.223,273.223L81.223,302.777L110.777,302.777L110.777,273.223" style="fill:none;stroke:white;stroke-width:7.24px;"/></g><g transform="matrix(6.63005e-17,-1.08277,2.16554,1.32601e-16,48.3253,455.946)"><path d="M81.223,273.223L81.223,302.777M110.777,302.777L110.777,273.223" style="fill:none;stroke:white;stroke-width:5.84px;"/></g><g transform="matrix(-1.08277,-1.32601e-16,2.65202e-16,-2.16554,455.946,975.675)"><path d="M81.223,273.223L81.223,302.777M110.777,302.777L110.777,273.223" style="fill:none;stroke:white;stroke-width:5.84px;"/></g><g transform="matrix(1.62415,0,0,1.08277,12.0813,40.1626)"><path d="M110.777,273.223L81.223,273.223L81.223,302.777L110.777,302.777" style="fill:none;stroke:white;stroke-width:7.24px;"/></g><path d="M256,368L208,368L208,320M240,320L240,336L256,336" style="fill:none;stroke:white;stroke-width:10px;"/><g transform="matrix(6.12323e-17,1,-1,6.12323e-17,768,128)"><path d="M256,368L208,368L208,320M240,320L240,336L256,336" style="fill:none;stroke:white;stroke-width:10px;"/></g><g transform="matrix(-1,-1.22465e-16,1.22465e-16,-1,1024,704)"><path d="M240,320L240,336L256,336M256,368L208,368L208,320" style="fill:none;stroke:white;stroke-width:10px;"/></g><g transform="matrix(6.12323e-17,1,-1,6.12323e-17,832,128)"><path d="M192,336L208,336L208,320M256,368L192,368M240,320L240,336L256,336" style="fill:none;stroke:white;stroke-width:10px;"/></g><g transform="matrix(6.12323e-17,-1,1,6.12323e-17,256,576)"><path d="M256,368L208,368L208,320M240,320L240,336L256,336" style="fill:none;stroke:white;stroke-width:10px;"/></g><g transform="matrix(1,0,0,1,512,-5.68434e-14)"><path d="M256,368L192,368M240,320L240,336L256,336M192,336L208,336L208,320" style="fill:none;stroke:white;stroke-width:10px;"/></g><g transform="matrix(6.12323e-17,-1,1,6.12323e-17,512,576)"><path d="M256,368L192,368M240,320L240,336L256,336M192,336L208,336L208,320" style="fill:none;stroke:white;stroke-width:10px;"/></g><g transform="matrix(-1,1.22465e-16,-1.22465e-16,-1,1152,704)"><path d="M256,368L192,368M240,320L240,336L256,336M192,336L208,336L208,320" style="fill:none;stroke:white;stroke-width:10px;"/></g><g transform="matrix(-1,1.22465e-16,-1.22465e-16,-1,1216,704)"><path d="M240,320L240,336L256,336M192,336L208,336L208,320M208,384L208,368L192,368M256,368L240,368L240,384" style="fill:none;stroke:white;stroke-width:10px;"/></g></g><g transform="matrix(5.95523,0,0,8.93284,-475.702,-2200.66)"><rect x="81.223" y="283.074" width="29.554" height="19.703" style="fill:none;stroke:white;stroke-width:1.32px;"/></g><g transform="matrix(1.62415,0,0,8.93284,68.0813,-2200.66)"><rect x="81.223" y="283.074" width="29.554" height="19.703" style="fill:none;stroke:white;stroke-width:1.56px;"/></g><g transform="matrix(1.62415,0,0,2.43623,68.0813,-169.634)"><rect x="81.223" y="283.074" width="29.554" height="19.703" style="fill:none;stroke:white;stroke-width:4.83px;"/></g><g transform="matrix(0.25,0,0,0.25,-192,-4.54747e-13)"><path d="M3104,2048L3104,2016L3072,2016M3296,1792L3296,1824L3328,1824M3072,1824L3104,1824L3104,1792" style="fill:none;stroke:white;stroke-width:40px;"/></g><g transform="matrix(1.53081e-17,0.25,-0.25,1.53081e-17,1152,-320)"><path d="M3104,2048L3104,2016L3072,2016M3296,1792L3296,1824L3328,1824M3072,1824L3104,1824L3104,1792" style="fill:none;stroke:white;stroke-width:40px;"/></g><g transform="matrix(-0.25,3.06162e-17,-3.06162e-17,-0.25,1472,1024)"><path d="M3104,2048L3104,2016L3072,2016M3296,1792L3296,1824L3328,1824M3072,1824L3104,1824L3104,1792" style="fill:none;stroke:white;stroke-width:40px;"/></g><g transform="matrix(-4.59243e-17,-0.25,0.25,-4.59243e-17,128,1344)"><path d="M3104,2048L3104,2016L3072,2016M3296,1792L3296,1824L3328,1824M3072,1824L3104,1824L3104,1792" style="fill:none;stroke:white;stroke-width:40px;"/></g><g transform="matrix(0.25,0,0,0.25,-192,-128)"><path d="M3296,1792L3296,1824L3328,1824M3104,2048L3104,2016L3072,2016" style="fill:none;stroke:white;stroke-width:40px;"/></g><g transform="matrix(1.53081e-17,0.25,-0.25,1.53081e-17,1088,-384)"><path d="M3296,1792L3296,1824L3328,1824M3104,2048L3104,2016L3072,2016" style="fill:none;stroke:white;stroke-width:40px;"/></g><g transform="matrix(0.25,0,0,0.25,-256,-64)"><path d="M3328,1760L3296,1760L3296,1792M3072,1568L3328,1568M3104,1792L3104,1760L3072,1760" style="fill:none;stroke:white;stroke-width:40px;"/></g><g transform="matrix(0.25,0,0,0.25,-256,-5.68434e-14)"><path d="M3328,1760L3296,1760L3296,1792M3104,1792L3104,1760L3072,1760" style="fill:none;stroke:white;stroke-width:40px;"/></g><g transform="matrix(0.25,0,0,-0.25,-256,960)"><path d="M3328,1760L3296,1760L3296,1792M3072,1568L3328,1568M3104,1792L3104,1760L3072,1760" style="fill:none;stroke:white;stroke-width:40px;"/></g><g transform="matrix(0.25,0,0,-0.25,-256,896)"><path d="M3328,1760L3296,1760L3296,1792M3104,1792L3104,1760L3072,1760" style="fill:none;stroke:white;stroke-width:40px;"/></g><g transform="matrix(1.53081e-17,-0.25,0.25,1.53081e-17,-128,1408)"><path d="M3328,1760L3296,1760L3296,1792M3072,1568L3328,1568M3104,1792L3104,1760L3072,1760" style="fill:none;stroke:white;stroke-width:40px;"/></g><g transform="matrix(1.53081e-17,-0.25,-0.25,-1.53081e-17,896,1408)"><path d="M3328,1760L3296,1760L3296,1792M3072,1568L3328,1568M3104,1792L3104,1760L3072,1760" style="fill:none;stroke:white;stroke-width:40px;"/></g><g transform="matrix(1.53081e-17,-0.25,-0.25,-1.53081e-17,832,1408)"><path d="M3328,1760L3296,1760L3296,1792M3104,1792L3104,1760L3072,1760" style="fill:none;stroke:white;stroke-width:40px;"/></g><g transform="matrix(-4.59243e-17,0.25,0.25,4.59243e-17,-64,-192)"><path d="M3328,1760L3296,1760L3296,1792M3104,1792L3104,1760L3072,1760" style="fill:none;stroke:white;stroke-width:40px;"/></g><g transform="matrix(1.53081e-17,-0.25,-0.25,-1.53081e-17,960,1408)"><path d="M3328,1760L3296,1760L3296,1792M3104,1792L3104,1760L3072,1760" style="fill:none;stroke:white;stroke-width:40px;"/></g><g transform="matrix(-4.59243e-17,0.25,0.25,4.59243e-17,128,-192)"><path d="M3328,1760L3296,1760L3296,1792M3104,1792L3104,1760L3072,1760" style="fill:none;stroke:white;stroke-width:40px;"/></g><g transform="matrix(0.25,0,0,0.25,256,-384)"><path d="M512,3040L480,3040L480,3072M256,2848L512,2848" style="fill:none;stroke:white;stroke-width:40px;"/></g><g transform="matrix(0.25,0,0,0.25,0,-64)"><path d="M1280,1760L1248,1760L1248,1792M1056,1792L1056,1568L1280,1568" style="fill:none;stroke:white;stroke-width:40px;"/></g><g transform="matrix(0.25,0,0,0.25,256,-384)"><path d="M512,3040L480,3040L480,3072M256,2848L512,2848" style="fill:none;stroke:white;stroke-width:40px;"/></g><g transform="matrix(1.53081e-17,0.25,0.25,-1.53081e-17,-448,320)"><path d="M512,3040L480,3040L480,3072M256,2848L512,2848" style="fill:none;stroke:white;stroke-width:40px;"/></g><g transform="matrix(0.25,0,0,0.25,64,-5.68434e-14)"><path d="M1280,1760L1248,1760L1248,1792" style="fill:none;stroke:white;stroke-width:40px;"/></g><g transform="matrix(1.53081e-17,0.25,-0.25,1.53081e-17,896,64)"><path d="M1280,1760L1248,1760L1248,1792M1056,1792L1056,1568L1280,1568" style="fill:none;stroke:white;stroke-width:40px;"/></g><g transform="matrix(1.53081e-17,0.25,-0.25,1.53081e-17,1216,320)"><path d="M512,3040L480,3040L480,3072M256,2848L512,2848" style="fill:none;stroke:white;stroke-width:40px;"/></g><g transform="matrix(-0.25,3.06162e-17,3.06162e-17,0.25,512,-384)"><path d="M512,3040L480,3040L480,3072M256,2848L512,2848" style="fill:none;stroke:white;stroke-width:40px;"/></g><g transform="matrix(1.53081e-17,0.25,-0.25,1.53081e-17,832,128)"><path d="M1280,1760L1248,1760L1248,1792" style="fill:none;stroke:white;stroke-width:40px;"/></g><g transform="matrix(-0.25,3.06162e-17,-3.06162e-17,-0.25,768,960)"><path d="M1280,1760L1248,1760L1248,1792M1056,1792L1056,1568L1280,1568" style="fill:none;stroke:white;stroke-width:40px;"/></g><g transform="matrix(-0.25,3.06162e-17,-3.06162e-17,-0.25,512,1280)"><path d="M512,3040L480,3040L480,3072M256,2848L512,2848" style="fill:none;stroke:white;stroke-width:40px;"/></g><g transform="matrix(-4.59243e-17,-0.25,-0.25,4.59243e-17,1216,576)"><path d="M512,3040L480,3040L480,3072M256,2848L512,2848" style="fill:none;stroke:white;stroke-width:40px;"/></g><g transform="matrix(-0.25,3.06162e-17,-3.06162e-17,-0.25,704,896)"><path d="M1280,1760L1248,1760L1248,1792" style="fill:none;stroke:white;stroke-width:40px;"/></g><g transform="matrix(-4.59243e-17,-0.25,0.25,-4.59243e-17,-128,832)"><path d="M1280,1760L1248,1760L1248,1792M1056,1792L1056,1568L1280,1568" style="fill:none;stroke:white;stroke-width:40px;"/></g><g transform="matrix(-4.59243e-17,-0.25,0.25,-4.59243e-17,-448,576)"><path d="M512,3040L480,3040L480,3072M256,2848L512,2848" style="fill:none;stroke:white;stroke-width:40px;"/></g><g transform="matrix(0.25,-6.12323e-17,-6.12323e-17,-0.25,256,1280)"><path d="M512,3040L480,3040L480,3072M256,2848L512,2848" style="fill:none;stroke:white;stroke-width:40px;"/></g><g transform="matrix(-4.59243e-17,-0.25,0.25,-4.59243e-17,-64,768)"><path d="M1280,1760L1248,1760L1248,1792" style="fill:none;stroke:white;stroke-width:40px;"/></g><g transform="matrix(5.95523,0,0,2.43623,-475.702,-169.634)"><rect x="81.223" y="283.074" width="29.554" height="19.703" style="fill:none;stroke:white;stroke-width:2.2px;"/></g><g transform="matrix(0.25,0,0,0.25,0,0)"><rect x="224" y="224" width="320" height="320" style="fill:none;stroke:white;stroke-width:45px;"/></g><g transform="matrix(1.62415,0,0,2.43623,68.0813,-681.634)"><rect x="81.223" y="283.074" width="29.554" height="19.703" style="fill:none;stroke:white;stroke-width:3.62px;"/></g><defs><linearGradient id="_Linear1" x1="0" y1="0" x2="1" y2="0" gradientUnits="userSpaceOnUse" gradientTransform="matrix(1.95943e-15,32,-32,1.95943e-15,352,64)"><stop offset="0" style="stop-color:black;stop-opacity:0.5"/><stop offset="0.19" style="stop-color:black;stop-opacity:0.3"/><stop offset="0.41" style="stop-color:black;stop-opacity:0.09"/><stop offset="1" style="stop-color:black;stop-opacity:0"/></linearGradient><linearGradient id="_Linear2" x1="0" y1="0" x2="1" y2="0" gradientUnits="userSpaceOnUse" gradientTransform="matrix(1.95943e-15,32,-32,1.95943e-15,352,64)"><stop offset="0" style="stop-color:black;stop-opacity:0.5"/><stop offset="0.19" style="stop-color:black;stop-opacity:0.3"/><stop offset="0.41" style="stop-color:black;stop-opacity:0.09"/><stop offset="1" style="stop-color:black;stop-opacity:0"/></linearGradient><linearGradient id="_Linear3" x1="0" y1="0" x2="1" y2="0" gradientUnits="userSpaceOnUse" gradientTransform="matrix(1.95943e-15,32,-32,1.95943e-15,352,64)"><stop offset="0" style="stop-color:black;stop-opacity:0.5"/><stop offset="0.19" style="stop-color:black;stop-opacity:0.3"/><stop offset="0.41" style="stop-color:black;stop-opacity:0.09"/><stop offset="1" style="stop-color:black;stop-opacity:0"/></linearGradient><linearGradient id="_Linear4" x1="0" y1="0" x2="1" y2="0" gradientUnits="userSpaceOnUse" gradientTransform="matrix(1.95943e-15,32,-32,1.95943e-15,352,64)"><stop offset="0" style="stop-color:black;stop-opacity:0.5"/><stop offset="0.19" style="stop-color:black;stop-opacity:0.3"/><stop offset="0.41" style="stop-color:black;stop-opacity:0.09"/><stop offset="1" style="stop-color:black;stop-opacity:0"/></linearGradient><linearGradient id="_Linear5" x1="0" y1="0" x2="1" y2="0" gradientUnits="userSpaceOnUse" gradientTransform="matrix(1.95943e-15,32,-32,1.95943e-15,352,64)"><stop offset="0" style="stop-color:black;stop-opacity:0.5"/><stop offset="0.19" style="stop-color:black;stop-opacity:0.3"/><stop offset="0.41" style="stop-color:black;stop-opacity:0.09"/><stop offset="1" style="stop-color:black;stop-opacity:0"/></linearGradient><linearGradient id="_Linear6" x1="0" y1="0" x2="1" y2="0" gradientUnits="userSpaceOnUse" gradientTransform="matrix(1.95943e-15,32,-32,1.95943e-15,352,64)"><stop offset="0" style="stop-color:black;stop-opacity:0.5"/><stop offset="0.19" style="stop-color:black;stop-opacity:0.3"/><stop offset="0.41" style="stop-color:black;stop-opacity:0.09"/><stop offset="1" style="stop-color:black;stop-opacity:0"/></linearGradient><linearGradient id="_Linear7" x1="0" y1="0" x2="1" y2="0" gradientUnits="userSpaceOnUse" gradientTransform="matrix(1.95943e-15,32,-32,1.95943e-15,352,64)"><stop offset="0" style="stop-color:black;stop-opacity:0.5"/><stop offset="0.19" style="stop-color:black;stop-opacity:0.3"/><stop offset="0.41" style="stop-color:black;stop-opacity:0.09"/><stop offset="1" style="stop-color:black;stop-opacity:0"/></linearGradient><linearGradient id="_Linear8" x1="0" y1="0" x2="1" y2="0" gradientUnits="userSpaceOnUse" gradientTransform="matrix(1.95943e-15,32,-32,1.95943e-15,352,64)"><stop offset="0" style="stop-color:black;stop-opacity:0.5"/><stop offset="0.19" style="stop-color:black;stop-opacity:0.3"/><stop offset="0.41" style="stop-color:black;stop-opacity:0.09"/><stop offset="1" style="stop-color:black;stop-opacity:0"/></linearGradient><linearGradient id="_Linear9" x1="0" y1="0" x2="1" y2="0" gradientUnits="userSpaceOnUse" gradientTransform="matrix(1.95943e-15,32,-32,1.95943e-15,352,64)"><stop offset="0" style="stop-color:black;stop-opacity:0.5"/><stop offset="0.19" style="stop-color:black;stop-opacity:0.3"/><stop offset="0.41" style="stop-color:black;stop-opacity:0.09"/><stop offset="1" style="stop-color:black;stop-opacity:0"/></linearGradient><linearGradient id="_Linear10" x1="0" y1="0" x2="1" y2="0" gradientUnits="userSpaceOnUse" gradientTransform="matrix(1.95943e-15,32,-32,1.95943e-15,352,64)"><stop offset="0" style="stop-color:black;stop-opacity:0.5"/><stop offset="0.19" style="stop-color:black;stop-opacity:0.3"/><stop offset="0.41" style="stop-color:black;stop-opacity:0.09"/><stop offset="1" style="stop-color:black;stop-opacity:0"/></linearGradient><linearGradient id="_Linear11" x1="0" y1="0" x2="1" y2="0" gradientUnits="userSpaceOnUse" gradientTransform="matrix(1.95943e-15,32,-32,1.95943e-15,352,64)"><stop offset="0" style="stop-color:black;stop-opacity:0.5"/><stop offset="0.19" style="stop-color:black;stop-opacity:0.3"/><stop offset="0.41" style="stop-color:black;stop-opacity:0.09"/><stop offset="1" style="stop-color:black;stop-opacity:0"/></linearGradient><linearGradient id="_Linear12" x1="0" y1="0" x2="1" y2="0" gradientUnits="userSpaceOnUse" gradientTransform="matrix(1.95943e-15,32,-32,1.95943e-15,352,64)"><stop offset="0" style="stop-color:black;stop-opacity:0.5"/><stop offset="0.19" style="stop-color:black;stop-opacity:0.3"/><stop offset="0.41" style="stop-color:black;stop-opacity:0.09"/><stop offset="1" style="stop-color:black;stop-opacity:0"/></linearGradient><linearGradient id="_Linear13" x1="0" y1="0" x2="1" y2="0" gradientUnits="userSpaceOnUse" gradientTransform="matrix(1.95943e-15,32,-32,1.95943e-15,352,64)"><stop offset="0" style="stop-color:black;stop-opacity:0.5"/><stop offset="0.19" style="stop-color:black;stop-opacity:0.3"/><stop offset="0.41" style="stop-color:black;stop-opacity:0.09"/><stop offset="1" style="stop-color:black;stop-opacity:0"/></linearGradient><linearGradient id="_Linear14" x1="0" y1="0" x2="1" y2="0" gradientUnits="userSpaceOnUse" gradientTransform="matrix(1.95943e-15,32,-32,1.95943e-15,352,64)"><stop offset="0" style="stop-color:black;stop-opacity:0.5"/><stop offset="0.19" style="stop-color:black;stop-opacity:0.3"/><stop offset="0.41" style="stop-color:black;stop-opacity:0.09"/><stop offset="1" style="stop-color:black;stop-opacity:0"/></linearGradient><linearGradient id="_Linear15" x1="0" y1="0" x2="1" y2="0" gradientUnits="userSpaceOnUse" gradientTransform="matrix(1.95943e-15,32,-32,1.95943e-15,352,64)"><stop offset="0" style="stop-color:black;stop-opacity:0.5"/><stop offset="0.19" style="stop-color:black;stop-opacity:0.3"/><stop offset="0.41" style="stop-color:black;stop-opacity:0.09"/><stop offset="1" style="stop-color:black;stop-opacity:0"/></linearGradient><linearGradient id="_Linear16" x1="0" y1="0" x2="1" y2="0" gradientUnits="userSpaceOnUse" gradientTransform="matrix(1.95943e-15,32,-32,1.95943e-15,352,64)"><stop offset="0" style="stop-color:black;stop-opacity:0.5"/><stop offset="0.19" style="stop-color:black;stop-opacity:0.3"/><stop offset="0.41" style="stop-color:black;stop-opacity:0.09"/><stop offset="1" style="stop-color:black;stop-opacity:0"/></linearGradient><linearGradient id="_Linear17" x1="0" y1="0" x2="1" y2="0" gradientUnits="userSpaceOnUse" gradientTransform="matrix(1.95943e-15,32,-32,1.95943e-15,352,64)"><stop offset="0" style="stop-color:black;stop-opacity:0.5"/><stop offset="0.19" style="stop-color:black;stop-opacity:0.3"/><stop offset="0.41" style="stop-color:black;stop-opacity:0.09"/><stop offset="1" style="stop-color:black;stop-opacity:0"/></linearGradient><linearGradient id="_Linear18" x1="0" y1="0" x2="1" y2="0" gradientUnits="userSpaceOnUse" gradientTransform="matrix(1.95943e-15,32,-32,1.95943e-15,352,64)"><stop offset="0" style="stop-color:black;stop-opacity:0.5"/><stop offset="0.19" style="stop-color:black;stop-opacity:0.3"/><stop offset="0.41" style="stop-color:black;stop-opacity:0.09"/><stop offset="1" style="stop-color:black;stop-opacity:0"/></linearGradient><linearGradient id="_Linear19" x1="0" y1="0" x2="1" y2="0" gradientUnits="userSpaceOnUse" gradientTransform="matrix(1.95943e-15,32,-32,1.95943e-15,352,64)"><stop offset="0" style="stop-color:black;stop-opacity:0.5"/><stop offset="0.19" style="stop-color:black;stop-opacity:0.3"/><stop offset="0.41" style="stop-color:black;stop-opacity:0.09"/><stop offset="1" style="stop-color:black;stop-opacity:0"/></linearGradient><linearGradient id="_Linear20" x1="0" y1="0" x2="1" y2="0" gradientUnits="userSpaceOnUse" gradientTransform="matrix(1.95943e-15,32,-32,1.95943e-15,352,64)"><stop offset="0" style="stop-color:black;stop-opacity:0.5"/><stop offset="0.19" style="stop-color:black;stop-opacity:0.3"/><stop offset="0.41" style="stop-color:black;stop-opacity:0.09"/><stop offset="1" style="stop-color:black;stop-opacity:0"/></linearGradient><linearGradient id="_Linear21" x1="0" y1="0" x2="1" y2="0" gradientUnits="userSpaceOnUse" gradientTransform="matrix(1.95943e-15,32,-32,1.95943e-15,352,64)"><stop offset="0" style="stop-color:black;stop-opacity:0.5"/><stop offset="0.19" style="stop-color:black;stop-opacity:0.3"/><stop offset="0.41" style="stop-color:black;stop-opacity:0.09"/><stop offset="1" style="stop-color:black;stop-opacity:0"/></linearGradient><linearGradient id="_Linear22" x1="0" y1="0" x2="1" y2="0" gradientUnits="userSpaceOnUse" gradientTransform="matrix(1.95943e-15,32,-32,1.95943e-15,352,64)"><stop offset="0" style="stop-color:black;stop-opacity:0.5"/><stop offset="0.19" style="stop-color:black;stop-opacity:0.3"/><stop offset="0.41" style="stop-color:black;stop-opacity:0.09"/><stop offset="1" style="stop-color:black;stop-opacity:0"/></linearGradient><linearGradient id="_Linear23" x1="0" y1="0" x2="1" y2="0" gradientUnits="userSpaceOnUse" gradientTransform="matrix(1.95943e-15,32,-32,1.95943e-15,352,64)"><stop offset="0" style="stop-color:black;stop-opacity:0.5"/><stop offset="0.19" style="stop-color:black;stop-opacity:0.3"/><stop offset="0.41" style="stop-color:black;stop-opacity:0.09"/><stop offset="1" style="stop-color:black;stop-opacity:0"/></linearGradient><linearGradient id="_Linear24" x1="0" y1="0" x2="1" y2="0" gradientUnits="userSpaceOnUse" gradientTransform="matrix(1.95943e-15,32,-32,1.95943e-15,352,64)"><stop offset="0" style="stop-color:black;stop-opacity:0.5"/><stop offset="0.19" style="stop-color:black;stop-opacity:0.3"/><stop offset="0.41" style="stop-color:black;stop-opacity:0.09"/><stop offset="1" style="stop-color:black;stop-opacity:0"/></linearGradient><linearGradient id="_Linear25" x1="0" y1="0" x2="1" y2="0" gradientUnits="userSpaceOnUse" gradientTransform="matrix(1.95943e-15,32,-32,1.95943e-15,352,64)"><stop offset="0" style="stop-color:black;stop-opacity:0.5"/><stop offset="0.19" style="stop-color:black;stop-opacity:0.3"/><stop offset="0.41" style="stop-color:black;stop-opacity:0.09"/><stop offset="1" style="stop-color:black;stop-opacity:0"/></linearGradient><linearGradient id="_Linear26" x1="0" y1="0" x2="1" y2="0" gradientUnits="userSpaceOnUse" gradientTransform="matrix(1.95943e-15,32,-32,1.95943e-15,352,64)"><stop offset="0" style="stop-color:black;stop-opacity:0.5"/><stop offset="0.19" style="stop-color:black;stop-opacity:0.3"/><stop offset="0.41" style="stop-color:black;stop-opacity:0.09"/><stop offset="1" style="stop-color:black;stop-opacity:0"/></linearGradient><linearGradient id="_Linear27" x1="0" y1="0" x2="1" y2="0" gradientUnits="userSpaceOnUse" gradientTransform="matrix(1.95943e-15,32,-32,1.95943e-15,352,64)"><stop offset="0" style="stop-color:black;stop-opacity:0.5"/><stop offset="0.19" style="stop-color:black;stop-opacity:0.3"/><stop offset="0.41" style="stop-color:black;stop-opacity:0.09"/><stop offset="1" style="stop-color:black;stop-opacity:0"/></linearGradient><linearGradient id="_Linear28" x1="0" y1="0" x2="1" y2="0" gradientUnits="userSpaceOnUse" gradientTransform="matrix(1.95943e-15,32,-32,1.95943e-15,352,64)"><stop offset="0" style="stop-color:black;stop-opacity:0.5"/><stop offset="0.19" style="stop-color:black;stop-opacity:0.3"/><stop offset="0.41" style="stop-color:black;stop-opacity:0.09"/><stop offset="1" style="stop-color:black;stop-opacity:0"/></linearGradient><linearGradient id="_Linear29" x1="0" y1="0" x2="1" y2="0" gradientUnits="userSpaceOnUse" gradientTransform="matrix(1.95943e-15,32,-32,1.95943e-15,352,64)"><stop offset="0" style="stop-color:black;stop-opacity:0.5"/><stop offset="0.19" style="stop-color:black;stop-opacity:0.3"/><stop offset="0.41" style="stop-color:black;stop-opacity:0.09"/><stop offset="1" style="stop-color:black;stop-opacity:0"/></linearGradient><linearGradient id="_Linear30" x1="0" y1="0" x2="1" y2="0" gradientUnits="userSpaceOnUse" gradientTransform="matrix(1.95943e-15,32,-32,1.95943e-15,352,64)"><stop offset="0" style="stop-color:black;stop-opacity:0.5"/><stop offset="0.19" style="stop-color:black;stop-opacity:0.3"/><stop offset="0.41" style="stop-color:black;stop-opacity:0.09"/><stop offset="1" style="stop-color:black;stop-opacity:0"/></linearGradient><linearGradient id="_Linear31" x1="0" y1="0" x2="1" y2="0" gradientUnits="userSpaceOnUse" gradientTransform="matrix(1.95943e-15,32,-32,1.95943e-15,352,64)"><stop offset="0" style="stop-color:black;stop-opacity:0.5"/><stop offset="0.19" style="stop-color:black;stop-opacity:0.3"/><stop offset="0.41" style="stop-color:black;stop-opacity:0.09"/><stop offset="1" style="stop-color:black;stop-opacity:0"/></linearGradient><linearGradient id="_Linear32" x1="0" y1="0" x2="1" y2="0" gradientUnits="userSpaceOnUse" gradientTransform="matrix(1.95943e-15,32,-32,1.95943e-15,352,64)"><stop offset="0" style="stop-color:black;stop-opacity:0.5"/><stop offset="0.19" style="stop-color:black;stop-opacity:0.3"/><stop offset="0.41" style="stop-color:black;stop-opacity:0.09"/><stop offset="1" style="stop-color:black;stop-opacity:0"/></linearGradient></defs></svg>